<svg xmlns="http://www.w3.org/2000/svg" viewBox="0 0 64 64" width="64" height="64" role="img" aria-label="Pau Vilar">
  <defs>
    <linearGradient id="pvBg" x1="0" y1="0" x2="1" y2="1">
      <stop offset="0%" stop-color="#101418"/>
      <stop offset="100%" stop-color="#05070a"/>
    </linearGradient>
    <linearGradient id="pvAccent" x1="0" y1="0" x2="1" y2="1">
      <stop offset="0%" stop-color="#25e066"/>
      <stop offset="100%" stop-color="#1DB954"/>
    </linearGradient>
    <linearGradient id="pvEdge" x1="0" y1="0" x2="1" y2="1">
      <stop offset="0%" stop-color="#1DB954" stop-opacity="0.85"/>
      <stop offset="55%" stop-color="#1DB954" stop-opacity="0.15"/>
      <stop offset="100%" stop-color="#38bdf8" stop-opacity="0.55"/>
    </linearGradient>
    <radialGradient id="pvGlow" cx="30%" cy="18%" r="75%">
      <stop offset="0%" stop-color="#1DB954" stop-opacity="0.30"/>
      <stop offset="100%" stop-color="#1DB954" stop-opacity="0"/>
    </radialGradient>
  </defs>

  <rect x="1.5" y="1.5" width="61" height="61" rx="16" fill="url(#pvBg)"/>
  <rect x="1.5" y="1.5" width="61" height="61" rx="16" fill="url(#pvGlow)"/>
  <rect x="1.5" y="1.5" width="61" height="61" rx="16" fill="none" stroke="url(#pvEdge)" stroke-width="1.6"/>

  <!-- P — monospace-inspired, built from geometry so it stays crisp at 16px -->
  <g fill="#ffffff">
    <rect x="17" y="16" width="6.5" height="32" rx="2"/>
    <path d="M23.5 16h11.2a10.4 10.4 0 0 1 0 20.8H23.5v-6.4h10.6a4 4 0 0 0 0-8H23.5z"/>
  </g>

  <!-- terminal cursor -->
  <rect x="38.5" y="40.5" width="9" height="7.5" rx="2" fill="url(#pvAccent)"/>
</svg>
